<?xml version="1.0" encoding="UTF-8" standalone="no"?>
<svg
   xmlns:dc="http://purl.org/dc/elements/1.1/"
   xmlns:cc="http://creativecommons.org/ns#"
   xmlns:rdf="http://www.w3.org/1999/02/22-rdf-syntax-ns#"
   xmlns:svg="http://www.w3.org/2000/svg"
   xmlns="http://www.w3.org/2000/svg"
   xmlns:xlink="http://www.w3.org/1999/xlink"
   xml:space="preserve"
   id="svg4768"
   viewBox="0.171 0.201 512 512"
   height="256"
   width="256"
   version="1"><metadata
     id="metadata70"><rdf:RDF><cc:Work
         rdf:about=""><dc:format>image/svg+xml</dc:format><dc:type
           rdf:resource="http://purl.org/dc/dcmitype/StillImage" /><dc:title></dc:title></cc:Work></rdf:RDF></metadata><!-- Gnu Emacs Icon
   Copyright (C) 2008-2017 Free Software Foundation, Inc.

   Author: Nicolas Petton <nicolas@petton.fr>

   This file is part of GNU Emacs.

   GNU Emacs is free software: you can redistribute it and/or modify
   it under the terms of the GNU General Public License as published by
   the Free Software Foundation; either version 3 of the License, or
   (at your option) any later version.

   GNU Emacs is distributed in the hope that it will be useful,
   but WITHOUT ANY WARRANTY; without even the implied warranty of
   MERCHANTABILITY or FITNESS FOR A PARTICULAR PURPOSE.  See the
   GNU General Public License for more details.

   You should have received a copy of the GNU General Public License
   along with GNU Emacs.  If not, see <http://www.gnu.org/licenses/>.

--><!-- Created with Inkscape (http://www.inkscape.org/) -->
<!-- Modified by Yuichiro Tsuchiya at 2019/01/09 -->
<defs
     id="defs4770"><linearGradient
       id="linearGradient4292"><stop
         id="stop4294"
         offset="0"
         style="stop-color: #3b393c; stop-opacity: 1" /><stop
         id="stop4296"
         offset="1"
         style="stop-color: #272627; stop-opacity: 1" /></linearGradient><linearGradient
       id="linearGradient4284"><stop
         offset="0"
         style="stop-color: #6db0e6; stop-opacity: 1"
         id="stop4286" /><stop
         id="stop4290"
         style="stop-color: #2b6daf; stop-opacity: 0.99607843"
         offset="0.6" /><stop
         offset="1"
         style="stop-color: #317ac7; stop-opacity: 0.99215686"
         id="stop4288" /></linearGradient><linearGradient
       id="linearGradient4898"><stop
         id="stop4278"
         style="stop-color: #bab8db; stop-opacity: 1"
         offset="0" /><stop
         id="stop4280"
         style="stop-color: #5955a9; stop-opacity: 0.99159664"
         offset="1" /></linearGradient><linearGradient
       id="linearGradient3294"><stop
         offset="0"
         style="stop-color: #6376e6; stop-opacity: 1"
         id="stop3296" /><stop
         offset="0.5"
         style="stop-color: #222989; stop-opacity: 1"
         id="stop3302" /><stop
         offset="1"
         style="stop-color: #00003d; stop-opacity: 1"
         id="stop3298" /></linearGradient><linearGradient
       id="linearGradient3284"><stop
         offset="0"
         style="stop-color: #000000; stop-opacity: 1"
         id="stop3286" /><stop
         offset="0.8"
         style="stop-color: #000000; stop-opacity: 0.49803922"
         id="stop3292" /><stop
         offset="1"
         style="stop-color: #000000; stop-opacity: 0"
         id="stop3288" /></linearGradient><linearGradient
       id="linearGradient3274"><stop
         offset="0"
         style="stop-color: #000000; stop-opacity: 1"
         id="stop3276" /><stop
         offset="1"
         style="stop-color: #000000; stop-opacity: 0"
         id="stop3278" /></linearGradient><linearGradient
       id="linearGradient3262"><stop
         offset="0"
         style="stop-color: #000000; stop-opacity: 1"
         id="stop3264" /><stop
         offset="1"
         style="stop-color: #000000; stop-opacity: 0"
         id="stop3266" /></linearGradient><linearGradient
       id="linearGradient3242"><stop
         offset="0"
         style="stop-color: #282828; stop-opacity: 1"
         id="stop3244" /><stop
         offset="0.4"
         style="stop-color: #808080; stop-opacity: 1"
         id="stop3252" /><stop
         offset="1"
         style="stop-color: #d9d9d9; stop-opacity: 1"
         id="stop3246" /></linearGradient><linearGradient
       id="linearGradient3202"><stop
         offset="0"
         style="stop-color: #2b2b2b; stop-opacity: 1"
         id="stop3204" /><stop
         offset="0.5"
         style="stop-color: #828383; stop-opacity: 1"
         id="stop3250" /><stop
         offset="1"
         style="stop-color: #dadbdb; stop-opacity: 1"
         id="stop3206" /></linearGradient><linearGradient
       id="linearGradient4966"><stop
         offset="0"
         style="stop-color: #b6b3d8; stop-opacity: 1"
         id="stop4968" /><stop
         offset="1"
         style="stop-color: #b6b3d8; stop-opacity: 0"
         id="stop4970" /></linearGradient><linearGradient
       id="linearGradient4938"><stop
         offset="0"
         style="stop-color: #000000; stop-opacity: 1"
         id="stop4940" /><stop
         offset="1"
         style="stop-color: #000000; stop-opacity: 0"
         id="stop4942" /></linearGradient><linearGradient
       id="linearGradient4282"><stop
         offset="0"
         style="stop-color: #bab8db; stop-opacity: 1"
         id="stop4900" /><stop
         offset="1"
         style="stop-color: #5955a9; stop-opacity: 0.99159664"
         id="stop4902" /></linearGradient><linearGradient
       id="linearGradient4876"><stop
         offset="0"
         style="stop-color: #d3d2e8; stop-opacity: 1"
         id="stop4878" /><stop
         offset="1"
         style="stop-color: #5955a9; stop-opacity: 0.99159664"
         id="stop4880" /></linearGradient><radialGradient
       gradientTransform="matrix(0.6817439,0,0,0.5905355,-3.8523706,-28.935273)"
       gradientUnits="userSpaceOnUse"
       xlink:href="#linearGradient4898"
       id="radialGradient4892"
       fy="-108.96888"
       fx="20.951529"
       r="266.76535"
       cy="-108.96888"
       cx="20.951529" /><radialGradient
       gradientTransform="matrix(1,0,0,0.1854103,0,383.88493)"
       gradientUnits="userSpaceOnUse"
       xlink:href="#linearGradient4938"
       id="radialGradient4944"
       fy="471.26172"
       fx="233.8876"
       r="170.49393"
       cy="471.26172"
       cx="233.8876" /><radialGradient
       gradientTransform="matrix(1,0,0,0.9121621,0,32.654948)"
       gradientUnits="userSpaceOnUse"
       xlink:href="#linearGradient4966"
       id="radialGradient4972"
       fy="371.76376"
       fx="299.70135"
       r="76.696358"
       cy="371.76376"
       cx="299.70135" /><radialGradient
       gradientTransform="matrix(0.414705,0.3300575,-0.5059004,0.6356454,346.95314,49.479585)"
       gradientUnits="userSpaceOnUse"
       xlink:href="#linearGradient3202"
       id="radialGradient3210"
       fy="390.45248"
       fx="289.44067"
       r="17.67668"
       cy="390.45248"
       cx="289.44067" /><radialGradient
       gradientTransform="matrix(0.414705,0.3300575,-0.5059004,0.6356454,448.41009,-65.398074)"
       gradientUnits="userSpaceOnUse"
       xlink:href="#linearGradient3202"
       id="radialGradient3238"
       fy="382.14804"
       fx="283.50717"
       r="17.67668"
       cy="382.14804"
       cx="283.50717" /><radialGradient
       gradientTransform="matrix(-6.5565014e-2,-5.9721765e-2,1.6871024,-1.8521705,171.90774,540.51473)"
       gradientUnits="userSpaceOnUse"
       xlink:href="#linearGradient3242"
       id="radialGradient3248"
       fy="181.18982"
       fx="418.45551"
       r="63.068935"
       cy="181.18982"
       cx="418.45551" /><radialGradient
       gradientTransform="matrix(0.4055116,-3.3440123e-2,0.1034174,4.3988695,177.23251,-1191.6649)"
       gradientUnits="userSpaceOnUse"
       xlink:href="#linearGradient3262"
       id="radialGradient3268"
       fy="357.33591"
       fx="354.51709"
       r="33.712105"
       cy="357.33591"
       cx="354.51709" /><radialGradient
       gradientTransform="matrix(-0.1339874,-0.1146812,0.3079048,-0.3597394,444.23592,395.03849)"
       gradientUnits="userSpaceOnUse"
       xlink:href="#linearGradient3274"
       id="radialGradient3280"
       fy="223.55537"
       fx="510.58469"
       r="132.28336"
       cy="223.55537"
       cx="510.58469" /><radialGradient
       gradientTransform="matrix(-1.2497569,1.3798305,-9.6289463e-2,-7.2974479e-2,674.3826,-70.590682)"
       gradientUnits="userSpaceOnUse"
       xlink:href="#linearGradient3284"
       id="radialGradient3290"
       fy="-158.17821"
       fx="284.4671"
       r="110.2972"
       cy="-158.17821"
       cx="284.4671" /><radialGradient
       gradientTransform="matrix(-0.1008165,-8.0872321e-2,1.0745309,-1.3395252,13.843287,784.79288)"
       gradientUnits="userSpaceOnUse"
       xlink:href="#linearGradient3294"
       id="radialGradient3300"
       fy="356.62274"
       fx="425.51019"
       r="143.34167"
       cy="356.62274"
       cx="425.51019" /><filter
       height="1.088351"
       y="-0.044175496"
       width="1.0892536"
       x="-0.044626798"
       id="filter4350"
       style="color-interpolation-filters:sRGB"><feGaussianBlur
         id="feGaussianBlur4352"
         stdDeviation="8.7848425" /></filter><linearGradient
       y2="300.73987"
       x2="236.61363"
       y1="-161.8512"
       x1="-122.20192"
       spreadMethod="pad"
       gradientTransform="matrix(0.87385837,0,0,0.82818057,246.00762,250.28138)"
       gradientUnits="userSpaceOnUse"
       id="linearGradient4245"
       xlink:href="#linearGradient4284" /><linearGradient
       y2="66.018341"
       x2="173.94518"
       y1="396.6066"
       x1="447.80933"
       gradientTransform="matrix(0.98684959,0,0,0.98684959,3.0344187,2.5250397)"
       gradientUnits="userSpaceOnUse"
       id="linearGradient4247"
       xlink:href="#linearGradient4292" /></defs><rect
     style="fill: none; display: none"
     id="rect4772"
     y="0.2"
     x="0.2"
     height="512"
     width="512" /><g
     style="display: none"
     id="g4788"><g
       style="display: inline"
       id="g4790" /></g><g
     style="display: none"
     id="g4806"><g
       style="display: inline"
       id="g4808"><path
         style="fill: #050505; display: none"
         id="path4810"
         d="M 349.1 256.7 C 348.8 256.4 386.7 284.3 388.5 281.7 C 394.9 272.4 470.6 188.5 473.3 165.4 C 473.5 163.4 472.8 161.3 472.8 161.3 C 472.8 161.3 471.6 161.2 466.5 157 C 463.8 154.8 461 152.4 461 152.4 C 444.9 153.4 403.1 194 349.9 256" /></g></g><path
     style="fill: #211f46; stroke: #0a0b1b; stroke-dasharray: none; stroke-width: 8.5; fill-opacity: 0.99607843; filter: url(#filter4350); opacity: 0.40500004; stroke-miterlimit: 4; stroke-opacity: 1"
     id="path4233"
     d="M 491.7 257.8 c 0 131.8 -105.8 238.6 -236.2 238.6 c -130.5 0 -236.2 -106.8 -236.2 -238.6 c 0 -131.8 105.8 -238.6 236.2 -238.6 c 130.5 0 236.2 106.8 236.2 238.6 z"
     transform="matrix(1,0,0,1,3,2.5)" /><path
     d="M 488.2 256.9 c 0 130.1 -104.4 235.5 -233.1 235.5 c -128.7 0 -233.1 -105.4 -233.1 -235.5 c 0 -130.1 104.4 -235.5 233.1 -235.5 c 128.7 0 233.1 105.4 233.1 235.5 z"
     id="path4235"
     style="fill: url(#linearGradient4245); stroke: url(#linearGradient4247); stroke-dasharray: none; stroke-width: 13.3; fill-opacity: 1; opacity: 1; stroke-miterlimit: 4; stroke-opacity: 1" /><path
     d="M 175 422.3 c 0 0 19.7 1.4 45.1 -0.8 c 10.3 -0.9 49.3 -4.7 78.5 -11.1 c 0 0 35.6 -7.6 54.6 -14.6 c 19.9 -7.3 30.8 -13.6 35.6 -22.4 c -0.2 -1.8 1.5 -8.2 -7.7 -12.1 c -23.5 -9.9 -50.7 -8.1 -104.6 -9.2 c -59.8 -2.1 -79.7 -12.1 -90.3 -20.1 c -10.2 -8.2 -5 -30.8 38.5 -50.7 c 21.9 -10.6 107.9 -30.2 107.9 -30.2 c -28.9 -14.3 -82.9 -39.5 -94 -44.9 c -9.7 -4.8 -25.3 -11.9 -28.7 -20.6 c -3.8 -8.3 9 -15.5 16.2 -17.6 c 23.1 -6.7 55.8 -10.8 85.6 -11.3 c 14.9 -0.2 17.4 -1.2 17.4 -1.2 c 20.6 -3.4 34.2 -17.5 28.5 -39.9 c -5.1 -22.8 -31.9 -36.2 -57.3 -31.6 c -24 4.4 -81.7 21.2 -81.7 21.2 c 71.4 -0.6 83.4 0.6 88.7 8 c 3.2 4.4 -1.4 10.5 -20.5 13.6 c -20.7 3.4 -63.8 7.5 -63.8 7.5 c -41.3 2.5 -70.5 2.6 -79.2 21.1 c -5.7 12.1 6.1 22.8 11.3 29.4 c 21.8 24.3 53.4 37.4 73.7 47 c 7.6 3.6 30.1 10.5 30.1 10.5 c -65.9 -3.6 -113.4 16.6 -141.3 39.9 c -31.5 29.2 -17.6 63.9 47 85.3 c 38.2 12.6 57.1 18.6 114 13.5 c 33.5 -1.8 38.8 -0.7 39.1 2 c 0.5 3.9 -37.2 13.5 -47.5 16.5 c -26.2 7.6 -94.8 22.8 -95.2 22.9 z"
     id="path4237"
     style="fill: #ffffff; fill-rule: evenodd; stroke: #000000; stroke-dasharray: none; stroke-linecap: butt; stroke-linejoin: miter; stroke-width: 0; fill-opacity: 1; stroke-miterlimit: 4; stroke-opacity: 1" /></svg>
